<mxfile host="app.diagrams.net" modified="2024-03-29T11:27:34.167Z" agent="Mozilla/5.0 (Macintosh; Intel Mac OS X 10_15_7) AppleWebKit/537.36 (KHTML, like Gecko) Chrome/123.0.0.0 Safari/537.36" etag="uy5QyVaHs6CfSXbSQDKi" version="24.1.0" type="device">
  <diagram name="Page-1" id="Ie0DhLgVVpjbRTghzruF">
    <mxGraphModel dx="1242" dy="721" grid="0" gridSize="10" guides="1" tooltips="1" connect="1" arrows="1" fold="1" page="1" pageScale="1" pageWidth="850" pageHeight="1100" math="0" shadow="0">
      <root>
        <mxCell id="0" />
        <mxCell id="1" parent="0" />
        <mxCell id="r8TxzoNQdZK3syUKUmSX-1" value="&lt;div&gt;&lt;span style=&quot;background-color: initial;&quot;&gt;AWS Cloud&lt;/span&gt;&lt;br&gt;&lt;/div&gt;" style="rounded=0;whiteSpace=wrap;html=1;verticalAlign=top;" parent="1" vertex="1">
          <mxGeometry x="220" y="150" width="420" height="320" as="geometry" />
        </mxCell>
        <mxCell id="r8TxzoNQdZK3syUKUmSX-10" value="" style="edgeStyle=orthogonalEdgeStyle;rounded=0;orthogonalLoop=1;jettySize=auto;html=1;entryX=0;entryY=0.5;entryDx=0;entryDy=0;endArrow=block;endFill=1;startArrow=block;startFill=1;" parent="1" source="r8TxzoNQdZK3syUKUmSX-2" target="r8TxzoNQdZK3syUKUmSX-5" edge="1">
          <mxGeometry relative="1" as="geometry">
            <mxPoint x="500" y="290" as="targetPoint" />
          </mxGeometry>
        </mxCell>
        <mxCell id="Hyra8_b8PD3CGn1lY55C-1" value="SSL" style="edgeLabel;html=1;align=center;verticalAlign=middle;resizable=0;points=[];" vertex="1" connectable="0" parent="r8TxzoNQdZK3syUKUmSX-10">
          <mxGeometry x="-0.26" y="-1" relative="1" as="geometry">
            <mxPoint as="offset" />
          </mxGeometry>
        </mxCell>
        <mxCell id="r8TxzoNQdZK3syUKUmSX-2" value="&lt;div&gt;Front End&amp;nbsp;&lt;/div&gt;&lt;div&gt;Next.js&lt;/div&gt;&lt;b&gt;Amplify Service&lt;/b&gt;" style="rounded=0;whiteSpace=wrap;html=1;horizontal=1;verticalAlign=top;" parent="1" vertex="1">
          <mxGeometry x="287" y="260" width="130" height="60" as="geometry" />
        </mxCell>
        <mxCell id="r8TxzoNQdZK3syUKUmSX-5" value="&lt;div&gt;Back End&amp;nbsp;&lt;/div&gt;&lt;div&gt;Python-Flask&lt;/div&gt;&lt;b&gt;Elastic Beanstalk&lt;/b&gt;" style="rounded=0;whiteSpace=wrap;html=1;horizontal=1;verticalAlign=top;" parent="1" vertex="1">
          <mxGeometry x="490" y="260" width="120" height="60" as="geometry" />
        </mxCell>
        <mxCell id="r8TxzoNQdZK3syUKUmSX-11" value="User&lt;div&gt;&lt;br&gt;&lt;/div&gt;" style="shape=umlActor;verticalLabelPosition=bottom;verticalAlign=top;html=1;outlineConnect=0;fontStyle=0" parent="1" vertex="1">
          <mxGeometry x="169" y="260" width="30" height="60" as="geometry" />
        </mxCell>
        <mxCell id="r8TxzoNQdZK3syUKUmSX-16" value="" style="endArrow=classic;startArrow=classic;html=1;rounded=0;entryX=0;entryY=0.5;entryDx=0;entryDy=0;" parent="1" target="r8TxzoNQdZK3syUKUmSX-2" edge="1" source="r8TxzoNQdZK3syUKUmSX-11">
          <mxGeometry width="50" height="50" relative="1" as="geometry">
            <mxPoint x="120" y="290" as="sourcePoint" />
            <mxPoint x="170" y="240" as="targetPoint" />
          </mxGeometry>
        </mxCell>
        <mxCell id="Hyra8_b8PD3CGn1lY55C-2" value="SSL" style="edgeLabel;html=1;align=center;verticalAlign=middle;resizable=0;points=[];" vertex="1" connectable="0" parent="r8TxzoNQdZK3syUKUmSX-16">
          <mxGeometry x="0.082" y="1" relative="1" as="geometry">
            <mxPoint as="offset" />
          </mxGeometry>
        </mxCell>
      </root>
    </mxGraphModel>
  </diagram>
</mxfile>
